<svg width="256" height="256" viewBox="0 0 256 256" fill="none" xmlns="http://www.w3.org/2000/svg">
<rect width="256" height="256" fill="#020D31"/>
<path d="M178.128 136.92L213 156.333V80.7778L178.128 99.6667V136.92Z" fill="white"/>
<path d="M110.564 80.7778V136.92L144.891 156.333V174.698L178.128 194.636V156.333L144.891 136.92V62.4136L110.564 80.7778Z" fill="white"/>
<path d="M43 61.3642V136.92L77.3269 156.333V194.636L110.564 213V156.333L77.3269 136.92V43L43 61.3642Z" fill="white"/>
<path d="M178.128 136.92L213 156.333V80.7778L178.128 99.6667V136.92Z" stroke="white" stroke-linejoin="round"/>
<path d="M110.564 80.7778V136.92L144.891 156.333V174.698L178.128 194.636V156.333L144.891 136.92V62.4136L110.564 80.7778Z" stroke="white" stroke-linejoin="round"/>
<path d="M43 61.3642V136.92L77.3269 156.333V194.636L110.564 213V156.333L77.3269 136.92V43L43 61.3642Z" stroke="white" stroke-linejoin="round"/>
</svg>